<svg xmlns="http://www.w3.org/2000/svg" width="66.406" height="86.553" viewBox="0 0 66.406 86.553">
  <g id="Umidità" transform="matrix(1, 0.017, -0.017, 1, 1.491, 0)">
    <path id="Tracciato_2" data-name="Tracciato 2" d="M32.128-26.9c11.217,11.553,32.8,35.656,32.8,53.366A32.266,32.266,0,0,1,32.462,58.531,32.266,32.266,0,0,1,0,26.465C0,8.755,22.065-15.89,32.128-26.9Z" transform="translate(0 26.901)" fill="#fff"/>
    <path id="Tracciato_3" data-name="Tracciato 3" d="M.708,15.24s12.6,9.22,26.7,10.1c16.958.542,18.878-.017,25.619,3.022-3.876,10.659-13.52,19.93-25.849,19.93-15.183,0-27.427-11.9-27.427-26.259A31.385,31.385,0,0,1,.708,15.24Z" transform="translate(6.076 31.811)" fill="#9ed3c8"/>
  </g>
</svg>
