<svg xmlns="http://www.w3.org/2000/svg" xmlns:xlink="http://www.w3.org/1999/xlink" width="89.954" height="86.261" viewBox="0 0 89.954 86.261">
  <defs>
    <filter id="Tracciato_50" x="43.029" y="0" width="46.925" height="86.261" filterUnits="userSpaceOnUse">
      <feOffset dy="3" input="SourceAlpha"/>
      <feGaussianBlur stdDeviation="3" result="blur"/>
      <feFlood flood-opacity="0.161"/>
      <feComposite operator="in" in2="blur"/>
      <feComposite in="SourceGraphic"/>
    </filter>
    <filter id="Tracciato_51" x="22.13" y="0" width="46.925" height="86.261" filterUnits="userSpaceOnUse">
      <feOffset dy="3" input="SourceAlpha"/>
      <feGaussianBlur stdDeviation="3" result="blur-2"/>
      <feFlood flood-opacity="0.161"/>
      <feComposite operator="in" in2="blur-2"/>
      <feComposite in="SourceGraphic"/>
    </filter>
    <filter id="Tracciato_52" x="0" y="0" width="46.925" height="86.261" filterUnits="userSpaceOnUse">
      <feOffset dy="3" input="SourceAlpha"/>
      <feGaussianBlur stdDeviation="3" result="blur-3"/>
      <feFlood flood-opacity="0.161"/>
      <feComposite operator="in" in2="blur-3"/>
      <feComposite in="SourceGraphic"/>
    </filter>
  </defs>
  <g id="heating" transform="translate(-1075.948 -504.965)">
    <g transform="matrix(1, 0, 0, 1, 1075.95, 504.97)" filter="url(#Tracciato_50)">
      <path id="Tracciato_50-2" data-name="Tracciato 50" d="M0,6.321V22.084s6.005,8.175,17.968,6.653S35.275,17.66,47.849,16a25.659,25.659,0,0,1,20.412,6.087V6.321A26.4,26.4,0,0,0,47.591.234C34.969,1.9,29.671,11.452,17.773,12.974S0,6.321,0,6.321Z" transform="translate(80.95 6) rotate(90)" fill="#fff"/>
    </g>
    <g transform="matrix(1, 0, 0, 1, 1075.95, 504.97)" filter="url(#Tracciato_51)">
      <path id="Tracciato_51-2" data-name="Tracciato 51" d="M0,6.321V22.084s6.005,8.175,17.968,6.653S35.275,17.66,47.849,16a25.659,25.659,0,0,1,20.412,6.087V6.321A26.4,26.4,0,0,0,47.591.234C34.969,1.9,29.671,11.452,17.773,12.974S0,6.321,0,6.321Z" transform="translate(60.06 6) rotate(90)" fill="#fff"/>
    </g>
    <g transform="matrix(1, 0, 0, 1, 1075.95, 504.97)" filter="url(#Tracciato_52)">
      <path id="Tracciato_52-2" data-name="Tracciato 52" d="M0,6.321V22.084s6.005,8.175,17.968,6.653S35.275,17.66,47.849,16a25.659,25.659,0,0,1,20.412,6.087V6.321A26.4,26.4,0,0,0,47.591.234C34.969,1.9,29.671,11.452,17.773,12.974S0,6.321,0,6.321Z" transform="translate(37.93 6) rotate(90)" fill="#fff"/>
    </g>
    <path id="Tracciato_53" data-name="Tracciato 53" d="M0,8.04V18.163s5.256,5.977,15.033,5.161,18.748-12.53,31.579-12.983S65,15.683,65,15.683V5.465S58.547-.956,46.363.122,26.815,13.2,14.414,13.475C4.465,13.514,0,8.04,0,8.04Z" transform="translate(1111.058 512.845) rotate(90)" fill="#9ed3c8"/>
    <path id="Tracciato_54" data-name="Tracciato 54" d="M0,8.04V18.163s5.256,5.977,15.033,5.161,18.748-12.53,31.579-12.983S65,15.683,65,15.683V5.465S58.547-.956,46.363.122,26.815,13.2,14.414,13.475C4.465,13.514,0,8.04,0,8.04Z" transform="translate(1133.241 512.596) rotate(90)" fill="#9ed3c8"/>
    <path id="Tracciato_55" data-name="Tracciato 55" d="M0,8.04V18.163s5.256,5.977,15.033,5.161,18.748-12.53,31.579-12.983S65,15.683,65,15.683V5.465S58.547-.956,46.363.122,26.815,13.2,14.414,13.475C4.465,13.514,0,8.04,0,8.04Z" transform="translate(1154.241 512.596) rotate(90)" fill="#9ed3c8"/>
  </g>
</svg>
