<svg xmlns="http://www.w3.org/2000/svg" width="72.156" height="108.477" viewBox="0 0 72.156 108.477">
  <g id="Cartina_tornasole" data-name="Cartina tornasole" transform="matrix(1, 0.017, -0.017, 1, 1.666, -0.541)">
    <path id="Tracciato_4" data-name="Tracciato 4" d="M5.847,1.689,40.658,0s4.64,22.05-5.116,100.348L0,98.053S9.318,73.792,5.847,1.689Z" transform="translate(31.009 0) rotate(18)" fill="#fff"/>
    <path id="Tracciato_5" data-name="Tracciato 5" d="M5.233,2.882S7.956,4.278,18.7,1.507,34.32.633,34.32.633s-.333,11.5-5.181,51.4L0,50.211S4.346,40.3,5.233,2.882Z" transform="translate(20.821 44.268) rotate(18)" fill="#9ed3c8"/>
    <path id="Tracciato_6" data-name="Tracciato 6" d="M29.081,6.708s-4.612-1.931-15.253.8S0,8.973,0,8.973L.15,2.892S5.306,4.276,13.838,1.418A26.949,26.949,0,0,1,29.479.906Z" transform="translate(28.175 39.165) rotate(18)" fill="#dcf2e0"/>
  </g>
</svg>
