<svg xmlns="http://www.w3.org/2000/svg" width="53.219" height="110.823" viewBox="0 0 53.219 110.823">
  <g id="Termometro" transform="matrix(1, 0.017, -0.017, 1, 1.924, -0.171)">
    <circle id="Ellisse_7" data-name="Ellisse 7" cx="22.227" cy="22.227" r="22.227" transform="translate(0 65.782)" fill="#fff"/>
    <path id="Rettangolo_3" data-name="Rettangolo 3" d="M7,0H17.918a7,7,0,0,1,7,7V70.5a1,1,0,0,1-1,1H0a0,0,0,0,1,0,0V7A7,7,0,0,1,7,0Z" transform="translate(9.768 0)" fill="#fff"/>
    <circle id="Ellisse_8" data-name="Ellisse 8" cx="17.622" cy="17.622" r="17.622" transform="translate(4.604 70.386)" fill="#9ed3c8"/>
    <g id="Rettangolo_4" data-name="Rettangolo 4" transform="translate(52.154 62.339) rotate(90)" fill="#bee0c4" stroke="#fff" stroke-width="0.5">
      <path d="M1.721,0h0A1.721,1.721,0,0,1,3.443,1.721V15.4a0,0,0,0,1,0,0H0a0,0,0,0,1,0,0V1.721A1.721,1.721,0,0,1,1.721,0Z" stroke="none"/>
      <path d="M1.721.25h0A1.471,1.471,0,0,1,3.193,1.721V15.152a0,0,0,0,1,0,0H.25a0,0,0,0,1,0,0V1.721A1.471,1.471,0,0,1,1.721.25Z" fill="none"/>
    </g>
    <g id="Rettangolo_7" data-name="Rettangolo 7" transform="translate(52.154 48.786) rotate(90)" fill="#bee0c4" stroke="#fff" stroke-width="0.5">
      <path d="M1.721,0h0A1.721,1.721,0,0,1,3.443,1.721V15.4a0,0,0,0,1,0,0H0a0,0,0,0,1,0,0V1.721A1.721,1.721,0,0,1,1.721,0Z" stroke="none"/>
      <path d="M1.721.25h0A1.471,1.471,0,0,1,3.193,1.721V15.152a0,0,0,0,1,0,0H.25a0,0,0,0,1,0,0V1.721A1.471,1.471,0,0,1,1.721.25Z" fill="none"/>
    </g>
    <g id="Rettangolo_5" data-name="Rettangolo 5" transform="translate(49.131 55.563) rotate(90)" fill="#bee0c4" stroke="#fff" stroke-width="0.5">
      <path d="M1.721,0h0A1.721,1.721,0,0,1,3.443,1.721V12.38a0,0,0,0,1,0,0H0a0,0,0,0,1,0,0V1.721A1.721,1.721,0,0,1,1.721,0Z" stroke="none"/>
      <path d="M1.721.25h0A1.471,1.471,0,0,1,3.193,1.721V12.13a0,0,0,0,1,0,0H.25a0,0,0,0,1,0,0V1.721A1.471,1.471,0,0,1,1.721.25Z" fill="none"/>
    </g>
    <g id="Rettangolo_6" data-name="Rettangolo 6" transform="translate(49.131 42.01) rotate(90)" fill="#bee0c4" stroke="#fff" stroke-width="0.5">
      <path d="M1.721,0h0A1.721,1.721,0,0,1,3.443,1.721V12.38a0,0,0,0,1,0,0H0a0,0,0,0,1,0,0V1.721A1.721,1.721,0,0,1,1.721,0Z" stroke="none"/>
      <path d="M1.721.25h0A1.471,1.471,0,0,1,3.193,1.721V12.13a0,0,0,0,1,0,0H.25a0,0,0,0,1,0,0V1.721A1.471,1.471,0,0,1,1.721.25Z" fill="none"/>
    </g>
    <path id="Tracciato_7" data-name="Tracciato 7" d="M-.042-.509s2.817-1.038,8.681-.553,8.538-1.256,8.538-1.256l.045,48.62H-.022Z" transform="translate(13.637 40.606)" fill="#9ed3c8"/>
  </g>
</svg>
